<svg xmlns="http://www.w3.org/2000/svg" viewBox="0 0 256 256">
  <path fill="#E0234E" d="M153.4 178.8a76.3 76.3 0 0 1-20.2 11.7c-8.1 3.3-16.9 5-25.8 5-13.5.1-26.6-3.8-37.8-11.1-11.3-7.3-20.4-17.6-26.5-29.9-6.1-12.3-8.5-26-7-39.6 1.5-13.6 6.9-26.5 15.5-37.3 8.6-10.8 20.2-19.1 33.4-23.9 13.2-4.8 27.4-5.7 41.1-2.6 13.7 3.1 26.2 10.1 36.1 20.2 9.9 10.1 16.9 22.8 20.2 36.6 3.3 13.8 2.4 28.2-2.6 41.5-4.9 13.3-13.6 24.9-24.7 33.4l4.7 5.9c1.2 1.5 2.1 3.2 2.7 5 .6 1.8.9 3.7.9 5.6 0 1.9-.3 3.8-.9 5.6-.6 1.8-1.5 3.5-2.7 5-2.4 3-5.8 5.3-9.6 6.4-3.8 1.1-7.9.9-11.6-.6-3.7-1.5-6.9-4.1-9.1-7.4-2.2-3.3-3.4-7.3-3.2-11.3-.1-2.3.2-4.7.9-6.9.7-2.2 1.8-4.3 3.2-6.1l4.7-5.9zm-46-94.5c-9.9 0-19.5 3-27.7 8.6-8.2 5.6-14.6 13.4-18.4 22.5-3.8 9.1-4.8 19.1-2.9 28.7 1.9 9.7 6.7 18.6 13.8 25.7 7.1 7.1 16 11.9 25.7 13.8 9.7 1.9 19.6.9 28.7-2.9 9.1-3.8 16.9-10.2 22.5-18.4 5.6-8.2 8.6-17.8 8.6-27.7 0-13.3-5.3-26-14.6-35.4-9.4-9.4-22.1-14.6-35.4-14.6l-.3-.3z"/>
</svg>